<svg xmlns="http://www.w3.org/2000/svg" width="1125" height="523.75" viewBox="0 0 900 419">
  <defs>
    <style>
      .cls-1 {
        fill: #2f2e2f;
        fill-rule: evenodd;
      }
    </style>
  </defs>
  <path id="シェイプ_5" data-name="シェイプ 5" class="cls-1" d="M899.191,418.038H45.2V44.71h58.225c0.68-32.84,21.09-43.8,21.09-43.8,12.305,14.927,15.809,30.069,14.753,43.8H899.5V187.451H135.048c1.614,8.057,2.515,12.587,3.154,16.028,7.169,38.628-31.139,47.865-44.409,25.6-5.978-10.032-4.157-25.687,9.937-25.687a13.347,13.347,0,0,1,0,26.693l-0.2,0c11.99,16.243,32.619-.879,31.332-19.038-0.464-6.5-2.283-15.859-3.976-23.592H49.564V275.3H899.5V418.038h-0.308ZM884.157,182.773h5.291V152.936h-5.291v29.837Zm0-34.516h5.291V118.419h-5.291v29.838Zm0-34.515h5.291V83.9h-5.291v29.837Zm0-34.515h5.291V49.39h-5.291V79.227ZM49.564,148.257H73.573c-1.915-9.539.48-19.954,4.75-29.838H49.564v29.838Zm0-34.515H80.5c5.96-12.006,14.2-22.848,20.076-29.837H49.564v29.837Zm65.2,4.677H92.836c-7.2,9.494-12.769,19.975-12.317,29.838H98.744C96.721,137.7,100.39,125.174,114.76,118.419Zm-8.314,29.838h16.09c-1.019-4.937-2.074-10.066-3.117-15.144l-0.062-.2C111.09,136.447,107.3,142.28,106.446,148.257Zm9.006-34.515L112.079,97.23c-4.62,4.55-10.275,10.232-15.519,16.512h18.892ZM103.462,49.39h-53.9V79.227H104.64c1.978-2.195,3.2-3.425,3.2-3.425A112.817,112.817,0,0,1,103.462,49.39Zm8.07,22.263A148.4,148.4,0,0,0,127.178,49.39H109.633A102.987,102.987,0,0,0,111.532,71.653Zm15.934-49.3c-8.474-4.979-16.25,12.749-17.268,20.056-0.1.75-.189,1.522-0.266,2.3h19.595C133.766,35.367,134.781,26.651,127.466,22.352ZM879.489,49.39H138.722a79.132,79.132,0,0,1-11.617,29.837H879.489V49.39Zm0,34.515H123.939a79.07,79.07,0,0,1-8.066,9.587c0.953,4.624,2.425,11.772,4.167,20.251H879.489V83.9ZM123.713,131.636c1.113,5.433,2.26,11.042,3.4,16.621h18.573C143.129,138.29,134.938,130.415,123.713,131.636Zm755.776-13.217H138.044a37.057,37.057,0,0,1,19.281,20.813,35.25,35.25,0,0,1,2.014,9.025h720.15V118.419Zm0,64.354V152.936H159.37c-1.148,16.415-15.617,27.166-25.023,29.837H879.489Zm-746.367-4.912c10.13-6.028,14-15.862,13.328-24.925H128.066C129.861,161.743,131.6,170.328,133.122,177.861ZM129,179.119c-1.089-4.966-3.145-14.8-5.5-26.183H106.35c0.7,7.23,5.192,13.833,10.665,15.86-5.626.4-13.486-6.386-16.981-15.86H81.211c0.021,0.082.034,0.165,0.056,0.247C85.811,169.891,105.853,184.205,129,179.119Zm-21.048,3.654c-13.186-3.575-27.409-12.441-33.117-29.837H49.564v29.837h58.389ZM49.564,378.844h52.022c8.017-8.209,16.364-18.274,22.5-29.837H49.564v29.837Zm0-34.515H126.4a75.6,75.6,0,0,0,6.428-21.483c0.4-2.973.641-5.751,0.74-8.354H112.154a12.162,12.162,0,0,1-10.712,6.41,11.294,11.294,0,0,1-10.239-6.41H49.564v29.837Zm64.048-63.819a19.391,19.391,0,0,0-19.358,18.354,12.162,12.162,0,0,1,19.356,9.841c0,0.374-.023.742-0.056,1.108H133.59C132.921,287.631,120.984,280.51,113.612,280.51Zm-64.048,29.3H89.488C87.219,299.77,91.615,285.705,104,279.976H49.564v29.837Zm829.925-29.837H130.639c8.807,3.695,13.591,10.879,15.88,18.414a58.843,58.843,0,0,1,2.282,11.423H879.489V279.976Zm0,34.516H149.06c0.124,10.732-2.965,20.693-8.136,29.837H879.489V314.492Zm0,34.515H138.078c-7.516,11.358-18.156,21.343-29.579,29.837h770.99V349.007Zm0,34.516H101.922c-5.4,3.674-10.865,7.022-16.173,10.031,3.234-2.784,7.06-6.147,11.114-10.031h-47.3V413.36H879.489V383.523Zm9.959-103.547h-5.291v29.837h5.291V279.976Zm0,34.516h-5.291v29.837h5.291V314.492Zm0,34.515h-5.291v29.837h5.291V349.007Zm0,34.516h-5.291V413.36h5.291V383.523Zm-729.3-63.953a7.625,7.625,0,1,1-7.606,7.624A7.615,7.615,0,0,1,160.145,319.57Zm0-32.349a7.625,7.625,0,1,1-7.606,7.624A7.615,7.615,0,0,1,160.145,287.221ZM6.5,319.327c19.749-44.627-3.526-88.072-3.526-88.072,13.753,4.137,33.859,51.424,21.161,87.48s-13.4,63.247,8.465,99.3C19.9,406.808-13.253,363.954,6.5,319.327Zm0-176.144C-13.253,98.556,19.9,55.7,32.6,44.471c-21.866,36.056-21.163,63.247-8.465,99.3s-7.408,83.343-21.161,87.481C2.969,231.255,26.244,187.809,6.5,143.183Z"/>
</svg>
