<svg xmlns="http://www.w3.org/2000/svg" width="2301" height="541.5" viewBox="0 0 1534 361">
  <defs>
    <style>
      .cls-1 {
        fill: #2f2e2f;
        fill-rule: evenodd;
      }
    </style>
  </defs>
  <path id="シェイプ_4" data-name="シェイプ 4" class="cls-1" d="M1533.37,360.534H36.233V36.246H83.222C83.771,9.742,100.243.9,100.243,0.9c9.929,12.046,12.763,24.267,11.911,35.344H1533.62v115.2H108.74c1.3,6.5,2.03,10.159,2.545,12.935,5.786,31.174-25.13,38.629-35.839,20.659-4.824-8.1-3.355-20.731,8.02-20.731a10.772,10.772,0,0,1,0,21.543l-0.166,0c9.677,13.108,26.324-.709,25.285-15.364a152.417,152.417,0,0,0-3.208-19.04H39.752v93.895H1533.62v115.2h-0.25Zm-12.14-212.867h4.27v-24.08h-4.27v24.08Zm0-27.856h4.27V95.731h-4.27v24.08Zm0-27.855h4.27V67.877h-4.27V91.956Zm0-27.855h4.27V40.022h-4.27V64.1ZM39.752,119.811H59.127c-1.546-7.7.388-16.1,3.834-24.08H39.752v24.08Zm0-27.855H64.715a126.921,126.921,0,0,1,16.2-24.079H39.752V91.956Zm52.555,3.775H74.673c-5.807,7.662-10.305,16.121-9.94,24.08h14.7C77.8,111.3,80.738,101.186,92.307,95.731Zm-6.65,24.08H98.642c-0.822-3.984-1.674-8.123-2.515-12.222l-0.051-.163C89.405,110.281,86.349,114.988,85.657,119.811Zm7.269-27.855L90.2,78.63c-3.729,3.673-8.293,8.258-12.525,13.326H92.926ZM83.249,40.022h-43.5V64.1H84.2c1.6-1.771,2.579-2.764,2.579-2.764A91.026,91.026,0,0,1,83.249,40.022Zm6.513,17.967a119.831,119.831,0,0,0,12.627-17.967H88.229A83.1,83.1,0,0,0,89.762,57.989ZM102.621,18.2C95.782,14.183,89.507,28.49,88.685,34.387c-0.084.606-.153,1.228-0.215,1.858h15.814C107.705,28.706,108.525,21.671,102.621,18.2ZM1517.47,40.022H111.721a63.843,63.843,0,0,1-9.39,24.079H1517.47V40.022Zm0,27.855H99.776a63.711,63.711,0,0,1-6.511,7.737c0.77,3.732,1.957,9.5,3.364,16.343H1517.47V67.877ZM99.592,106.4c0.9,4.385,1.824,8.911,2.743,13.413h14.989C115.262,111.768,108.651,105.412,99.592,106.4ZM1517.47,95.731H111.158a29.9,29.9,0,0,1,15.56,16.8,28.48,28.48,0,0,1,1.626,7.284H1517.47V95.731Zm0,51.936v-24.08H128.369c-0.926,13.248-12.6,21.924-20.195,24.08h1409.3ZM107.185,143.7a21.2,21.2,0,0,0,10.757-20.115H103.105C104.554,130.7,105.961,137.623,107.185,143.7Zm-3.325,1.016c-0.879-4.008-2.538-11.946-4.438-21.131H85.58c0.566,5.835,4.19,11.164,8.607,12.8-4.541.318-10.883-5.154-13.7-12.8H65.292c0.017,0.066.027,0.133,0.045,0.2C69,137.27,85.179,148.822,103.86,144.718Zm-17.011,2.949c-10.635-2.89-22.1-10.05-26.7-24.08H39.752v24.08h47.1ZM39.752,328.9H81.735A107.219,107.219,0,0,0,99.9,304.823H39.752V328.9Zm0-27.854h62.012a61.028,61.028,0,0,0,5.188-17.338c0.325-2.4.517-4.641,0.6-6.742H90.263a9.814,9.814,0,0,1-8.645,5.173,9.114,9.114,0,0,1-8.263-5.173h-33.6v24.08Zm51.689-51.5a15.648,15.648,0,0,0-15.623,14.812A9.815,9.815,0,0,1,91.439,272.3c0,0.3-.018.6-0.045,0.894h16.169C107.024,255.291,97.39,249.544,91.44,249.544ZM39.752,273.192h32.22c-1.831-8.1,1.717-19.456,11.714-24.079H39.752v24.079ZM1517.47,249.113H105.181c7.108,2.982,10.969,8.779,12.816,14.861a47.456,47.456,0,0,1,1.842,9.218H1517.47V249.113Zm0,27.855H120.048a47.4,47.4,0,0,1-6.566,24.08H1517.47v-24.08Zm0,27.855H111.185c-6.066,9.166-14.653,17.225-23.871,24.079H1517.47V304.823Zm0,27.856H82.006c-4.355,2.964-8.769,5.667-13.052,8.1,2.61-2.247,5.7-4.961,8.969-8.1H39.752v24.079H1517.47V332.679Zm8.03-83.566h-4.27v24.079h4.27V249.113Zm0,27.855h-4.27v24.08h4.27v-24.08Zm0,27.855h-4.27V328.9h4.27V304.823Zm0,27.856h-4.27v24.079h4.27V332.679ZM128.994,281.066a6.154,6.154,0,1,1-6.139,6.154A6.146,6.146,0,0,1,128.994,281.066Zm0-26.107a6.154,6.154,0,1,1-6.139,6.154A6.146,6.146,0,0,1,128.994,254.959Zm-124,25.911c15.938-36.015-2.846-84.077-2.846-84.077,11.1,3.339,27.325,54.5,17.078,83.6s-10.815,51.043,6.832,80.141C15.811,351.47-10.944,316.886,4.994,280.87Zm0-165.154C-10.944,79.7,15.811,45.116,26.057,36.052c-17.647,29.1-17.079,51.043-6.832,80.141s-5.979,77.261-17.078,80.6C2.148,196.793,20.932,151.731,4.994,115.716Z"/>
</svg>
