<svg xmlns="http://www.w3.org/2000/svg" width="2526" height="917" viewBox="0 0 2526 917">
  <defs>
    <style>
      .cls-1 {
        fill-rule: evenodd;
      }
    </style>
  </defs>
  <path id="シェイプ_8" data-name="シェイプ 8" class="cls-1" d="M2527.09,917.368H93.932V73.665H209.97c7.334-50.508,39.6-67.931,39.6-67.931,18.761,22.9,27.019,46.053,28.725,67.931H2527.73V373.312H270.551c2.835,14.236,4.464,22.5,5.641,28.874,13.949,75.6-60.585,93.68-86.4,50.1-11.631-19.635-8.087-50.275,19.333-50.275a26.122,26.122,0,0,1,0,52.243l-0.4,0c23.329,31.79,63.464-1.72,60.96-37.259-0.853-12.038-4.063-29.067-7.2-43.68H103.068V617.72H2527.73V917.368h-0.64Zm-31.51-553.877h11.09V300.856h-11.09v62.635Zm0-72.458h11.09V228.4h-11.09v62.635Zm0-72.455h11.09V155.944h-11.09v62.634Zm0-72.455h11.09V83.488h-11.09v62.635ZM103.068,291.033h46.845c-3.029-20.213,3.291-42.222,13.11-62.635H103.068v62.635Zm0-72.455h64.994c15.915-29.176,37.355-53.679,45.611-62.634h-110.6v62.634Zm130.441,15.755L232.3,228.4H193.664c-15.86,19.451-29.375,41.653-29.741,62.635h34.971C196.111,270.325,204.511,246.565,233.509,234.333Zm-18.533,56.7h30.1c-1.785-8.707-3.619-17.676-5.433-26.565l-0.122-.4C224.856,270.386,217.434,280.439,214.976,291.033Zm15.334-72.455-4.943-24.34c-7,6.934-15.218,15.216-23.329,24.34H230.31Zm-21.4-135.09H103.068v62.635H215.475C209.224,121.5,207.638,100.791,208.906,83.488Zm12.8,3.455c-2.429,17.522-.882,39.579,2.6,57.237,12.608-15.226,30.875-39.594,38.221-60.692H222.353C222.07,84.732,221.852,85.893,221.707,86.943ZM255.3,47.69c-12.435-7.35-24.1,10.581-29.927,25.975h39.766C267.055,62.649,264.74,53.269,255.3,47.69Zm2230.5,35.8H278.632c-0.2,23.33-7.443,44.866-16.653,62.635H2485.8V83.488Zm0,72.456H256.483a166.888,166.888,0,0,1-23.736,30.979c1.55,7.56,3.8,18.565,6.479,31.655H2485.8V155.944Zm0,72.454H241.232q0.345,1.681.694,3.4c31.181-6.678,61.388,16.517,71.471,44.649a70.74,70.74,0,0,1,3.572,14.589H2485.8V228.4ZM248,261.579c1.962,9.635,3.98,19.553,5.989,29.454h35.883C284.075,273.012,268.681,259.316,248,261.579Zm20.593,101.912H2485.8V300.856H317.511c-0.951,33.731-30.494,55.777-49.233,60.93l-0.022.007C268.37,362.368,268.483,362.931,268.594,363.491Zm-2.287-11.444c20.606-12.334,27.9-32.81,25.7-51.191H255.983C259.647,318.933,263.218,336.618,266.307,352.047Zm-8.017,2.463c-2.194-10.069-6.408-30.364-11.193-53.654H214.05c0.54,15.071,9.669,29.26,20.92,33.45-11.416.806-27.56-13.659-33.868-33.45H164.766c0.192,0.967.393,1.933,0.652,2.892C174.259,336.448,213.252,364.464,258.29,354.51Zm-33.256,8.981c-28.17-5.584-61.274-23.475-72.88-62.635H103.068v62.635H225.034Zm-121.966,471.6H223.612c15.695-17.973,30.851-39.042,41.59-62.634H103.068v62.634Zm0-72.454H269.357A164.2,164.2,0,0,0,279.27,724.9a184.821,184.821,0,0,0,1.754-24.9h-44.96a26.913,26.913,0,0,1-26.048,20.572c-12.763,0-21.363-8.552-25.259-20.572H103.068v62.634Zm133.8-131.942c-19.1,0-41.2,14.367-42.709,40.842a26.537,26.537,0,0,1,15.86-5.243,26.95,26.95,0,0,1,26.645,23.886h44C277.41,645.294,252.485,630.692,236.865,630.692Zm-133.8,59.485H182.7c-2.483-23.009,9.192-52.337,37.723-62.634H103.068v62.634ZM2485.8,627.543H269.17c22.821,7.411,34.807,24.713,40.295,42.936a133.842,133.842,0,0,1,4.363,19.7H2485.8V627.543Zm0,72.457H314.847c1.413,22.358-3.395,43.27-12.5,62.634H2485.8V700Zm0,72.454H297.316c-13.038,23.354-32.163,44.3-53.676,62.634H2485.8V772.454Zm0,72.457H231.6a474.81,474.81,0,0,1-56.206,37.325,525.731,525.731,0,0,0,39.317-37.325H103.068v62.636H2485.8V844.911Zm20.87-217.368h-11.09v62.634h11.09V627.543Zm0,72.457h-11.09v62.634h11.09V700Zm0,72.454h-11.09v62.634h11.09V772.454Zm0,72.457h-11.09v62.636h11.09V844.911ZM339.529,717.608a16.968,16.968,0,1,1-16.782,16.967A16.874,16.874,0,0,1,339.529,717.608Zm0-71.983a16.968,16.968,0,1,1-16.782,16.967A16.874,16.874,0,0,1,339.529,645.625ZM12.824,710.149C54.2,616.468,5.435,496.265,5.435,496.265c28.818,8.685,70.947,136.952,44.341,212.642S21.695,841.678,67.513,917.368C40.909,893.792-28.556,803.832,12.824,710.149Zm0-429.768C-28.556,186.7,40.909,96.739,67.513,73.162,21.695,148.853,23.169,205.933,49.775,281.623S34.253,487.58,5.435,496.265C5.435,496.265,54.2,374.063,12.824,280.381Z"/>
</svg>
