<svg fill="none" height="602" viewBox="0 0 1705 602" width="1705" xmlns="http://www.w3.org/2000/svg"><path clip-rule="evenodd" d="m1703.99 601.547h-1647.49v-546.6595h72.781c.85-41.05 26.363-54.749988 26.363-54.749988 15.381 18.658788 19.761 37.586288 18.441 54.749988h1530.295v178.4265h-1535.57c2.018 10.071 3.144 15.734 3.943 20.035 8.961 48.285-38.924 59.831-55.512 32-7.472-12.54-5.196-32.109 12.422-32.109 4.399.038 8.606 1.813 11.703 4.937 3.098 3.125 4.836 7.346 4.836 11.746s-1.738 8.622-4.836 11.746c-3.097 3.125-7.304 4.899-11.703 4.937h-.25c14.987 20.304 40.773-1.099 39.165-23.797-.58-8.125-2.854-19.824-4.97-29.49h-101.653v189.806h1642.425v178.422zm-18.79-374.081h6.61v-37.296h-6.61zm0-43.145h6.61v-37.297h-6.61zm0-43.143h6.61v-38.303h-6.61v38.296zm0-44.1442h6.61v-36.2963h-6.61zm-1623.245 87.2872h30.0113c-2.3938-11.923.6-24.942 5.9375-37.297h-35.9488zm0-43.143h38.67c7.45-15.008 17.75-28.56 25.095-37.297l-63.765-1zm81.5 5.846h-27.41c-9 11.867-15.961 24.969-15.396 37.297h22.781c-2.529-13.196 2.058-28.853 20.02-37.297zm-10.392 37.297h20.112c-1.274-6.171-2.592-12.582-3.896-18.93l-.078-.25c-10.338 4.418-15.076 11.709-16.143 19.18zm11.257-43.143-4.221-20.64c-5.775 5.687-12.844 12.79-19.399 20.64h23.615zm-14.992-80.4405h-67.3755v36.2963l68.8475 1c2.473-2.7438 4-4.2813 4-4.2813-3.128-10.7488-4.965-21.8318-5.472-33.015zm10.087 27.8288c7.358-8.6578 13.904-17.9732 19.558-27.8288h-21.932c-.22 9.3349.576 18.666 2.374 27.8288zm19.918-61.625c-10.593-6.2238-20.313 15.9362-21.585 25.07-.125.9375-.237 1.9025-.333 2.875h24.494c5.299-11.6775 6.567-22.5725-2.576-27.9463zm1520.027 33.7962h-1505.957c-2.249 13.2917-7.19 25.9836-14.522 37.2963l1520.479-1zm0 42.1435-1524.436 1c-3.039 4.255-6.41 8.262-10.083 11.984 1.192 5.78 3.032 14.715 5.209 25.314h1529.31v-38.304zm-1524.719 60.664c1.392 6.791 2.825 13.803 4.25 20.776h23.217c-3.197-12.458-13.435-22.302-27.467-20.776zm1524.719-16.521h-1506.805c5.529 2.541 10.504 6.146 14.639 10.61s7.351 9.699 9.462 15.406c1.331 3.634 2.178 7.427 2.518 11.281h1480.186zm0 80.442v-37.296h-1480.147c-1.435 20.519-19.522 33.957-31.279 37.296zm-1512.957-6.14c12.662-7.535 17.5-19.827 16.66-31.156h-22.98c2.243 11.009 4.417 21.74 6.32 31.156zm-5.153 1.573c-1.361-6.208-3.931-18.5-6.875-32.729h-21.437c.875 9.038 6.49 17.291 13.331 19.825-7.033.5-16.858-7.982-21.226-19.825h-23.529c.026.103.042.206.07.309 5.68 20.885 30.732 38.777 59.666 32.42zm-26.31 4.567c-16.482-4.469-34.261-15.551-41.3962-37.296h-31.5888v37.296zm-72.985 325.089h65.028c10.021-10.261 20.455-22.843 28.125-37.296h-93.153zm0-43.144h96.045c3.998-8.502 6.707-17.553 8.035-26.853.5-3.717.801-7.189.925-10.443h-26.767c-1.3 2.421-3.231 4.444-5.589 5.855s-5.054 2.157-7.801 2.158c-2.674.013-5.295-.733-7.561-2.152-2.266-1.418-4.082-3.451-5.238-5.861h-52.049zm80.06-79.773c-6.203.001-12.169 2.381-16.671 6.649-4.501 4.268-7.195 10.099-7.526 16.293 2.268-1.664 4.954-2.666 7.758-2.895 2.804-.228 5.616.326 8.124 1.601s4.613 3.221 6.08 5.621c1.468 2.4 2.241 5.161 2.233 7.974 0 .468-.029.928-.07 1.385h25.045c-.837-27.727-15.758-36.628-24.973-36.628zm-80.06 36.625h49.905c-2.836-12.55 2.659-30.132 18.14-37.293h-68.045v37.296zm1617.405-37.297h-1516.061c11.009 4.619 16.989 13.599 19.85 23.018 1.421 4.653 2.376 9.436 2.852 14.279h1493.359v-37.293zm0 43.145h-1493.035c.155 13.415-3.706 25.867-10.17 37.297h1503.205v-37.293zm0 43.144h-1506.762c-9.395 14.198-22.695 26.679-36.974 37.296h1543.736v-37.292zm0 43.145h-1551.957c-6.75 4.592-13.582 8.778-20.217 12.539 4.043-3.48 8.825-7.684 13.893-12.539h-59.1252v37.3h1617.4062v-37.296zm12.45-129.434h-6.61v37.297h6.61v-37.293zm0 43.145h-6.61v37.297h6.61v-37.293zm0 43.144h-6.61v37.296h6.61v-37.292zm0 43.145h-6.61v37.3h6.61v-37.296zm-1491.625-79.941c1.886-.005 3.731.55 5.302 1.595 1.57 1.044 2.796 2.531 3.521 4.272.725 1.742.917 3.659.552 5.509-.365 1.851-1.271 3.551-2.604 4.887-1.332 1.335-3.03 2.245-4.88 2.614-1.849.37-3.767.183-5.51-.538s-3.233-1.943-4.281-3.511-1.608-3.412-1.607-5.298c-.002-2.523.997-4.944 2.78-6.731 1.782-1.786 4.2-2.792 6.723-2.795zm0-40.437c1.886-.004 3.731.551 5.302 1.595 1.57 1.045 2.796 2.532 3.521 4.273s.917 3.659.552 5.509c-.365 1.851-1.271 3.551-2.604 4.886-1.332 1.336-3.03 2.246-4.88 2.615-1.849.37-3.767.182-5.51-.539-1.743-.72-3.233-1.942-4.281-3.51s-1.608-3.412-1.607-5.298c-.002-2.524.997-4.945 2.78-6.731 1.782-1.786 4.2-2.792 6.723-2.796zm-192.05996 40.137c24.68626-55.784-4.4075-150.09-4.4075-150.09 17.19126 5.171 42.32376 104.28 26.45126 149.35s-16.75 79.059 10.5812 124.125c-15.875-14.034-57.3162-67.601-32.62496-123.385zm0-300.18c-24.69124-55.784 16.74996-109.354 32.62496-123.3902-27.3325 45.07-26.4537 79.0582-10.5812 124.1252 15.8725 45.066-9.26 144.179-26.45126 149.351-.00625.004 29.08746-94.304 4.4075-150.086z" fill="#2f2e2f" fill-rule="evenodd"/></svg>