<svg xmlns="http://www.w3.org/2000/svg" width="150" height="215" viewBox="0 0 120 172">
  <defs>
    <style>
      .cls-1 {
        fill-rule: evenodd;
      }
    </style>
  </defs>
  <path id="シェイプ_8" data-name="シェイプ 8" class="cls-1" d="M23.039,28.765a17.89,17.89,0,0,1,0,35.777C-5.266,64.542-2.513.73,44.933,0.73c26.535,0,38.856,14.867,43.653,30.8C107.711,95.007,49.241,143.071.219,171.1c21.8-18.926,62.054-56,68.466-103.7S53.327,5.3,40.736,5.3s-27.154,9.469-28.15,26.919a17.494,17.494,0,0,1,10.453-3.456h0ZM108.4,15.144a11.183,11.183,0,1,1-11.06,11.183A11.121,11.121,0,0,1,108.4,15.144h0Zm0,47.444a11.184,11.184,0,1,1-11.06,11.183A11.121,11.121,0,0,1,108.4,62.588h0Z"/>
</svg>
