<svg 
 xmlns="http://www.w3.org/2000/svg"
 xmlns:xlink="http://www.w3.org/1999/xlink"
 width="379px" height="212px">
<path fill-rule="evenodd"  stroke="rgb(0, 0, 0)" stroke-width="10px" stroke-linecap="butt" stroke-linejoin="miter" fill="rgb(255, 255, 255)"
 d="M19.1000,10.000 L354.000,10.000 C359.523,10.000 364.000,14.477 364.000,19.1000 L364.000,173.000 C364.000,178.523 359.523,182.1000 354.000,182.1000 L19.1000,182.1000 C14.477,182.1000 9.1000,178.523 9.1000,173.000 L9.1000,19.1000 C9.1000,14.477 14.477,10.000 19.1000,10.000 Z"/>
<path fill-rule="evenodd"  stroke="rgb(0, 0, 0)" stroke-width="10px" stroke-linecap="butt" stroke-linejoin="miter" fill="rgb(0, 0, 0)"
 d="M71.545,14.562 L71.545,109.608 C71.545,114.173 67.624,117.873 62.787,117.873 L45.760,117.873 C40.923,117.873 37.002,114.173 37.002,109.608 L37.002,14.562 C37.002,9.998 71.545,9.998 71.545,14.562 Z"/>
<path fill-rule="evenodd"  stroke="rgb(0, 0, 0)" stroke-width="10px" stroke-linecap="butt" stroke-linejoin="miter" fill="rgb(0, 0, 0)"
 d="M126.722,14.562 L126.722,109.608 C126.722,114.173 122.801,117.873 117.964,117.873 L100.937,117.873 C96.100,117.873 92.179,114.173 92.179,109.608 L92.179,14.562 C92.179,9.998 126.722,9.998 126.722,14.562 Z"/>
<path fill-rule="evenodd"  stroke="rgb(0, 0, 0)" stroke-width="10px" stroke-linecap="butt" stroke-linejoin="miter" fill="rgb(0, 0, 0)"
 d="M274.070,14.562 L274.070,109.608 C274.070,114.173 270.149,117.873 265.312,117.873 L248.284,117.873 C243.447,117.873 239.526,114.173 239.526,109.608 L239.526,14.562 C239.526,9.998 274.070,9.998 274.070,14.562 Z"/>
<path fill-rule="evenodd"  stroke="rgb(0, 0, 0)" stroke-width="10px" stroke-linecap="butt" stroke-linejoin="miter" fill="rgb(0, 0, 0)"
 d="M330.998,14.562 L330.998,109.608 C330.998,114.173 327.077,117.873 322.240,117.873 L305.213,117.873 C300.376,117.873 296.455,114.173 296.455,109.608 L296.455,14.562 C296.455,9.998 330.998,9.998 330.998,14.562 Z"/>
<path fill-rule="evenodd"  stroke="rgb(0, 0, 0)" stroke-width="10px" stroke-linecap="butt" stroke-linejoin="miter" fill="rgb(0, 0, 0)"
 d="M214.514,14.562 L214.514,109.608 C214.514,114.173 210.593,117.873 205.756,117.873 L188.729,117.873 C183.892,117.873 179.970,114.173 179.970,109.608 L179.970,14.562 C179.970,9.998 214.514,9.998 214.514,14.562 Z"/>
<path fill-rule="evenodd"  stroke="rgb(0, 0, 0)" stroke-width="6px" stroke-linecap="butt" stroke-linejoin="miter" fill="rgb(255, 255, 255)"
 d="M317.227,139.852 L286.861,139.852 L286.861,156.192 L314.821,156.192 C316.878,156.192 318.414,156.654 319.428,157.577 C320.441,158.500 320.949,159.718 320.949,161.231 C320.949,162.744 320.449,163.977 319.451,164.930 C318.452,165.883 316.909,166.359 314.821,166.359 L286.861,166.359 L286.861,185.287 L318.271,185.287 C320.388,185.287 321.985,185.779 323.059,186.762 C324.133,187.746 324.670,189.054 324.670,190.688 C324.670,192.262 324.133,193.540 323.059,194.523 C321.985,195.507 320.388,195.999 318.271,195.999 L281.642,195.999 C278.706,195.999 276.596,195.348 275.310,194.047 C274.023,192.746 273.381,190.643 273.381,187.738 L273.381,137.719 C273.381,135.783 273.668,134.201 274.243,132.976 C274.818,131.750 275.718,130.858 276.944,130.298 C278.169,129.738 279.735,129.458 281.642,129.458 L317.227,129.458 C319.375,129.458 320.971,129.935 322.015,130.888 C323.059,131.841 323.581,133.089 323.581,134.633 C323.581,136.206 323.059,137.469 322.015,138.423 C320.971,139.376 319.375,139.852 317.227,139.852 ZM257.268,182.405 C255.815,185.053 253.954,187.420 251.685,189.508 C249.899,191.112 247.947,192.398 245.830,193.366 C243.711,194.335 241.434,195.016 238.999,195.408 C236.563,195.802 233.817,195.999 230.761,195.999 L213.195,195.999 C210.744,195.999 208.898,195.628 207.658,194.886 C206.416,194.145 205.607,193.101 205.229,191.755 C204.851,190.409 204.662,188.661 204.662,186.512 L204.662,137.719 C204.662,134.814 205.312,132.711 206.614,131.410 C207.914,130.109 210.018,129.458 212.923,129.458 L230.488,129.458 C235.057,129.458 238.976,129.882 242.244,130.729 C245.512,131.577 248.477,133.165 251.140,135.495 C258.069,141.426 261.534,150.444 261.534,162.547 C261.534,166.541 261.186,170.188 260.490,173.486 C259.794,176.784 258.720,179.757 257.268,182.405 ZM244.899,147.705 C242.917,144.437 240.474,142.357 237.569,141.464 C234.664,140.571 231.153,140.125 227.039,140.125 L218.142,140.125 L218.142,185.287 L228.355,185.287 C230.594,185.287 232.349,185.226 233.620,185.105 C234.891,184.985 236.207,184.682 237.569,184.197 C238.931,183.714 240.111,183.033 241.109,182.155 C245.618,178.342 247.872,171.776 247.872,162.456 C247.872,155.890 246.881,150.973 244.899,147.705 ZM184.691,187.602 C181.906,190.688 178.487,193.048 174.433,194.682 C170.378,196.316 165.733,197.133 160.498,197.133 C155.294,197.133 150.633,196.294 146.519,194.614 C142.403,192.935 138.968,190.567 136.215,187.511 C133.461,184.455 131.381,180.778 129.974,176.481 C128.567,172.185 127.864,167.540 127.864,162.547 C127.864,157.433 128.597,152.743 130.065,148.476 C131.532,144.210 133.658,140.579 136.442,137.583 C139.226,134.587 142.615,132.295 146.609,130.706 C150.604,129.118 155.142,128.324 160.226,128.324 C167.125,128.324 173.048,129.723 177.996,132.522 C182.943,135.321 186.688,139.301 189.230,144.459 C191.771,149.619 193.042,155.678 193.042,162.638 C193.042,167.782 192.346,172.457 190.954,176.663 C189.562,180.869 187.474,184.515 184.691,187.602 ZM177.020,149.883 C175.446,146.313 173.199,143.613 170.280,141.781 C167.359,139.951 164.008,139.035 160.226,139.035 C157.532,139.035 155.044,139.542 152.760,140.556 C150.474,141.570 148.508,143.045 146.859,144.981 C145.209,146.918 143.909,149.392 142.956,152.402 C142.002,155.414 141.526,158.795 141.526,162.547 C141.526,166.330 142.002,169.749 142.956,172.805 C143.909,175.861 145.255,178.395 146.995,180.407 C148.735,182.420 150.732,183.925 152.986,184.924 C155.240,185.922 157.714,186.421 160.408,186.421 C163.857,186.421 167.027,185.559 169.917,183.834 C172.806,182.109 175.106,179.447 176.816,175.846 C178.525,172.245 179.380,167.812 179.380,162.547 C179.380,157.675 178.593,153.454 177.020,149.883 ZM81.521,183.880 C84.184,185.575 87.301,186.421 90.872,186.421 C94.745,186.421 98.020,185.461 100.698,183.539 C103.376,181.618 105.396,178.796 106.758,175.074 C107.332,173.320 108.044,171.890 108.891,170.785 C109.738,169.681 111.100,169.128 112.976,169.128 C114.580,169.128 115.956,169.688 117.106,170.808 C118.256,171.927 118.831,173.320 118.831,174.983 C118.831,177.102 118.309,179.394 117.265,181.860 C116.221,184.326 114.580,186.747 112.341,189.122 C110.101,191.498 107.241,193.427 103.762,194.909 C100.282,196.391 96.228,197.133 91.598,197.133 C88.087,197.133 84.895,196.800 82.021,196.135 C79.146,195.469 76.536,194.433 74.191,193.026 C71.846,191.618 69.690,189.765 67.723,187.465 C65.968,185.377 64.470,183.040 63.230,180.453 C61.989,177.866 61.058,175.105 60.438,172.169 C59.818,169.235 59.508,166.118 59.508,162.819 C59.508,157.463 60.287,152.668 61.845,148.431 C63.403,144.195 65.635,140.571 68.540,137.560 C71.445,134.550 74.849,132.257 78.753,130.684 C82.656,129.111 86.816,128.324 91.235,128.324 C96.620,128.324 101.417,129.398 105.623,131.546 C109.829,133.695 113.051,136.350 115.291,139.512 C117.530,142.674 118.650,145.662 118.650,148.476 C118.650,150.019 118.105,151.381 117.016,152.561 C115.926,153.741 114.610,154.331 113.067,154.331 C111.342,154.331 110.048,153.923 109.186,153.106 C108.324,152.289 107.363,150.882 106.304,148.885 C104.549,145.587 102.483,143.120 100.108,141.486 C97.732,139.852 94.805,139.035 91.326,139.035 C85.788,139.035 81.378,141.139 78.095,145.344 C74.811,149.551 73.170,155.527 73.170,163.273 C73.170,168.447 73.896,172.752 75.349,176.186 C76.801,179.621 78.858,182.185 81.521,183.880 Z"/>
</svg>