<svg xmlns="http://www.w3.org/2000/svg" width="166.5" height="462" viewBox="0 0 111 308">
  <defs>
    <style>
      .cls-1 {
        fill: #2f2e2f;
        fill-rule: evenodd;
      }
    </style>
  </defs>
  <path id="シェイプ_7" data-name="シェイプ 7" class="cls-1" d="M56.256,215.341c-14.115-5.257-23.129-34.62,2.975-45.855l0.08,0.258c4.9,24,10.02,48.918,12.171,58.788-29.4,6.5-54.864-11.792-60.636-33.142-6.721-24.855,21.889-54.407,39.141-71.5L55.3,150.069c-20.763,8.758-25.356,26.569-21.877,40.876,3.456,14.212,14.895,24.956,22.831,24.4h0ZM49.292,91.208c-2.27-11.529-3.281-25.93-1.694-37.37C48.89,44.5,58.767,21.848,69.531,28.21c18.965,11.212-6.1,45.917-20.24,63h0ZM39.38,259.546a17.056,17.056,0,0,1,0,34.11l-0.26,0c15.232,20.756,41.436-1.123,39.8-24.327-0.684-9.659-3.694-24.244-6.077-34.77-16.551,4.5-61.006-2.935-71.3-43.381S44.6,96.51,44.6,96.51C24.2,23.251,65.789.817,65.789,0.817c41.173,50.244,4.881,102.428-10.983,118.3,1.337,6.522,3.475,16.965,5.993,29.3,20.358-4.36,40.08,10.784,46.663,29.151,11.093,30.951-14.478,51.6-29.458,55.72l-0.015,0c2.815,14.119,4.226,21.2,5.182,26.373,9.107,49.36-39.556,61.163-56.413,32.711-7.594-12.82-5.28-32.825,12.623-32.825h0Zm25.384-91.688c28.809-3.153,41.908,41.136,11.952,59.067-3.481-17.387-7.9-39.153-11.952-59.067h0Z"/>
</svg>
